<svg class="icon" style="width: 1em; height: 1em;vertical-align: middle;fill: currentColor;overflow: hidden;" viewBox="0 0 1024 1024" version="1.1" xmlns="http://www.w3.org/2000/svg" p-id="896"><path d="M304 608c0 114.88 93.12 208 208 208s208-93.12 208-208-93.12-208-208-208S304 493.12 304 608zM960 256 736 256c-16-64-32-128-96-128L384 128c-64 0-80 64-96 128L64 256c-35.2 0-64 28.8-64 64l0 576c0 35.2 28.8 64 64 64l896 0c35.2 0 64-28.8 64-64L1024 320C1024 284.8 995.2 256 960 256zM512 892c-156.864 0-284-127.136-284-284 0-156.864 127.136-284 284-284 156.864 0 284 127.136 284 284C796 764.864 668.864 892 512 892zM960 448l-128 0 0-64 128 0L960 448z" p-id="897"></path></svg>