<svg class="icon" style="width: 1em; height: 1em;vertical-align: middle;fill: currentColor;overflow: hidden;" viewBox="0 0 1024 1024" version="1.1" xmlns="http://www.w3.org/2000/svg" p-id="621"><path d="M819.1 829.6H202c-77.3 0-140.3-62.9-140.3-140.3v-405c0-77.4 63-140.3 140.3-140.3h617.1c77.3 0 140.3 62.9 140.3 140.3v405.1c0 77.3-63 140.2-140.3 140.2zM202 200.1c-46.4 0-84.2 37.8-84.2 84.2v405.1c0 46.4 37.8 84.2 84.2 84.2h617.1c46.4 0 84.2-37.8 84.2-84.2V284.3c0-46.4-37.8-84.2-84.2-84.2H202zM506.6 561.3c-29.7 0-59.3-11.3-81.9-33.9L116.1 218.8l39.7-39.7 308.6 308.6c23.3 23.3 61.1 23.3 84.4 0l308.6-308.6 39.7 39.7-308.6 308.7c-22.6 22.5-52.3 33.8-81.9 33.8z" p-id="622"></path></svg>