<svg class="icon" style="width: 1em; height: 1em;vertical-align: middle;fill: #0894ec;overflow: hidden;" viewBox="0 0 1024 1024" version="1.1" xmlns="http://www.w3.org/2000/svg" p-id="719"><path d="M960 288a32 32 0 0 1-32-32 32.036 32.036 0 0 0-32-32H128a32.036 32.036 0 0 0-32 32 32 32 0 0 1-64 0 96.109 96.109 0 0 1 96-96h768a96.109 96.109 0 0 1 96 96 32 32 0 0 1-32 32zM672 864a32 32 0 0 1-32-32V384a32 32 0 0 1 64 0v448a32 32 0 0 1-32 32zM352 864a32 32 0 0 1-32-32V384a32 32 0 0 1 64 0v448a32 32 0 0 1-32 32zM512 864a32 32 0 0 1-32-32V384a32 32 0 0 1 64 0v448a32 32 0 0 1-32 32z" p-id="720"></path><path d="M704 224a32 32 0 0 1-32-32v-64a32.036 32.036 0 0 0-32-32H384a32.036 32.036 0 0 0-32 32v64a32 32 0 0 1-64 0v-64a96.109 96.109 0 0 1 96-96h256a96.109 96.109 0 0 1 96 96v64a32 32 0 0 1-32 32zM768 992H256a96.109 96.109 0 0 1-96-96V320a32 32 0 0 1 64 0v576a32.036 32.036 0 0 0 32 32h512a32.036 32.036 0 0 0 32-32V320a32 32 0 0 1 64 0v576a96.109 96.109 0 0 1-96 96z" p-id="721"></path></svg>