<svg class="icon" style="width: 1em; height: 1em;vertical-align: middle;fill: currentColor;overflow: hidden;" viewBox="0 0 1024 1024" version="1.1" xmlns="http://www.w3.org/2000/svg" p-id="822"><path d="M1024 194.410667a419.968 419.968 0 0 1-120.661333 33.088 210.688 210.688 0 0 0 92.373333-116.224 420.629333 420.629333 0 0 1-133.397333 50.986666 209.813333 209.813333 0 0 0-153.365334-66.346666c-116.010667 0-210.090667 94.058667-210.090666 210.069333 0 16.469333 1.856 32.512 5.44 47.872-174.592-8.746667-329.386667-92.373333-433.002667-219.498667a209.088 209.088 0 0 0-28.458667 105.621334 210.005333 210.005333 0 0 0 93.461334 174.869333 209.237333 209.237333 0 0 1-95.146667-26.282667l-0.021333 2.645334c0 101.781333 72.405333 186.709333 168.533333 205.994666a210.496 210.496 0 0 1-94.890667 3.605334 210.304 210.304 0 0 0 196.266667 145.898666 421.546667 421.546667 0 0 1-260.906667 89.941334c-16.981333 0-33.706667-1.002667-50.133333-2.944a594.645333 594.645333 0 0 0 322.048 94.378666c386.410667 0 597.738667-320.106667 597.738667-597.738666 0-9.109333-0.213333-18.154667-0.618667-27.178667A426.965333 426.965333 0 0 0 1024 194.410667z" fill="#69ACE0" p-id="823"></path></svg>