<svg class="icon" style="width: 1em; height: 1em;vertical-align: middle;fill: #3ea5dd;overflow: hidden;" viewBox="0 0 1024 1024" version="1.1" xmlns="http://www.w3.org/2000/svg" p-id="477"><path d="M512 49.152C257.024 49.152 51.2 256 51.2 509.952s206.848 460.8 460.8 460.8 460.8-205.824 460.8-460.8c0-253.952-206.848-460.8-460.8-460.8zM278.528 451.584l-2.048-4.096v-5.12l-1.024-2.048v-11.264l1.024-4.096 1.024-5.12 2.048-5.12 2.048-5.12 3.072-6.144 4.096-6.144V389.12l1.024-5.12 2.048-5.12 2.048-6.144 1.024-3.072 1.024-3.072 2.048-3.072 2.048-2.048V348.16l1.024-7.168 1.024-8.192 2.048-10.24 3.072-10.24 2.048-6.144 2.048-6.144 2.048-6.144 3.072-6.144 3.072-7.168 3.072-6.144 4.096-7.168 5.12-7.168 2.048-4.096 2.048-3.072 5.12-7.168 5.12-7.168 6.144-7.168 6.144-7.168 7.168-7.168 7.168-7.168 8.192-8.192 5.12-5.12 6.144-5.12 7.168-4.096 7.168-4.096 7.168-4.096 8.192-3.072 8.192-4.096 8.192-3.072 8.192-3.072 9.216-3.072 9.216-2.048 9.216-2.048 9.216-2.048 9.216-1.024 9.216-1.024 10.24-1.024h29.696l10.24 1.024 10.24 1.024 10.24 1.024 9.216 2.048 10.24 2.048 9.216 2.048 10.24 3.072 9.216 3.072 9.216 4.096 9.216 4.096 9.216 4.096 8.192 5.12 8.192 5.12 7.168 5.12 3.072 3.072 3.072 2.048 6.144 6.144 5.12 5.12 5.12 6.144 5.12 6.144 4.096 6.144 5.12 6.144 4.096 7.168 4.096 6.144 4.096 7.168 3.072 6.144 5.12 12.288 3.072 6.144 2.048 6.144 2.048 6.144 2.048 6.144 1.024 5.12 2.048 6.144 3.072 11.264 2.048 10.24 1.024 9.216 1.024 7.168 2.048 11.264v2.048l1.024 2.048 4.096 6.144 2.048 4.096 2.048 4.096 3.072 4.096 2.048 5.12 1.024 5.12 2.048 6.144 1.024 6.144 1.024 3.072v20.48l-1.024 4.096-1.024 8.192-2.048 4.096-1.024 4.096v1.024l1.024 1.024 2.048 3.072 9.216 13.312 7.168 9.216 3.072 6.144 4.096 7.168 4.096 8.192 4.096 8.192 4.096 9.216 5.12 10.24 3.072 6.144 3.072 6.144 2.048 7.168 2.048 6.144 2.048 6.144 2.048 6.144 2.048 11.264 2.048 12.288 1.024 10.24V614.4l-1.024 5.12-1.024 9.216-2.048 8.192-2.048 7.168-1.024 3.072-2.048 4.096-1.024 2.048-2.048 3.072-2.048 2.048-2.048 2.048-2.048 2.048-2.048 2.048-3.072 1.024-2.048 1.024-2.048 1.024H798.72l-2.048-1.024-3.072-1.024-1.024-1.024-2.048-1.024-2.048-2.048-2.048-2.048-3.072-3.072-3.072-4.096-2.048-5.12-3.072-4.096-3.072-4.096-4.096-8.192-4.096-8.192h-1.024l-1.024 2.048-1.024 2.048-2.048 3.072-3.072 8.192-4.096 11.264-5.12 13.312-4.096 7.168-4.096 7.168-5.12 8.192-5.12 8.192-3.072 3.072-3.072 4.096-8.192 7.168 1.024 1.024 1.024 1.024 4.096 2.048 16.384 8.192 7.168 4.096 7.168 4.096 7.168 5.12 6.144 5.12 3.072 2.048 2.048 3.072 2.048 3.072 2.048 3.072 1.024 3.072 1.024 3.072v3.072l1.024 3.072-1.024 2.048v4.096h-3.072v2.048l-1.024 2.048-3.072 4.096-3.072 2.048-2.048 2.048-2.048 2.048-4.096 3.072-5.12 3.072-5.12 3.072-6.144 3.072-6.144 2.048-3.072 1.024-4.096 1.024-7.168 2.048-8.192 2.048-8.192 2.048-8.192 1.024H686.08l-9.216 1.024h-27.648l-10.24-1.024-9.216-1.024-10.24-1.024-10.24-1.024-10.24-1.024-10.24-2.048-10.24-2.048-10.24-3.072-10.24-4.096-10.24-3.072-5.12-2.048-5.12-2.048-3.072-1.024-3.072-1.024h-8.192l-9.216-1.024h-5.12l-6.144-1.024-1.024 5.12-5.12 3.072-7.168 4.096-8.192 4.096-5.12 2.048-5.12 2.048-11.264 5.12-6.144 2.048-6.144 2.048h-22.528l-5.12 2.048H366.592l-17.408-2.048-8.192-1.024-8.192-1.024-8.192-1.024-7.168-1.024-7.168-2.048-7.168-2.048-6.144-3.072-6.144-2.048-6.144-3.072-5.12-3.072-5.12-4.096-2.048-2.048-2.048-2.048-2.048-2.048V778.24l-1.024-2.048-1.024-2.048-2.048-4.096-1.024-2.048-1.024-3.072v-2.048l1.024-3.072v-3.072l1.024-3.072V744.448l1.024-3.072 1.024-3.072 2.048-4.096 1.024-2.048 1.024-2.048 3.072-4.096 2.048-2.048 2.048-1.024 2.048-2.048 3.072-1.024 3.072-2.048 3.072-2.048 4.096-1.024 4.096-1.024 4.096-1.024 4.096-1.024 5.12-1.024h6.144l1.024-1.024v-1.024l-1.024-1.024-3.072-1.024-7.168-6.144-5.12-4.096-6.144-5.12-6.144-5.12-2.048-5.12-7.168-8.192-2.048-4.096-3.072-4.096-3.072-5.12-3.072-5.12-3.072-5.12-2.048-6.144-3.072-6.144-3.072-7.168-1.024-7.168-2.048-8.192h-2.048v-1.024h-1.024l-1.024 1.024h-1.024l-1.024 1.024v2.048l-1.024 1.024-1.024 2.048-3.072 6.144-2.048 4.096-3.072 3.072-3.072 4.096-3.072 4.096-3.072 4.096-3.072 3.072-4.096 3.072-3.072 3.072-4.096 3.072-4.096 2.048-5.12 1.024h-7.168l-1.024-2.048-2.048-1.024-2.048-5.12-1.024-2.048-1.024-4.096-1.024-4.096-1.024-4.096-2.048-8.192-1.024-5.12v-16.384l1.024-12.288 1.024-6.144 1.024-6.144 1.024-7.168 2.048-6.144 2.048-7.168 2.048-7.168 3.072-7.168 3.072-7.168 4.096-7.168 3.072-8.192 4.096-7.168 5.12-8.192 5.12-7.168 5.12-8.192 4.096-5.12 6.144-6.144 6.144-6.144 3.072-3.072 3.072-3.072 5.12-4.096 5.12-4.096 8.192-7.168 6.144-4.096 3.072-2.048z" p-id="478"></path></svg>