<svg class="icon" style="width: 1em; height: 1em;vertical-align: middle;fill: #52b674;overflow: hidden;" viewBox="0 0 1024 1024" version="1.1" xmlns="http://www.w3.org/2000/svg" p-id="507"><path d="M571.392 518.144c-12.288 0-25.6 12.288-25.6 25.6s12.288 25.6 25.6 25.6c19.456 0 31.744-12.288 31.744-25.6s-12.288-25.6-31.744-25.6zM711.68 518.144c-12.288 0-25.6 12.288-25.6 25.6s12.288 25.6 25.6 25.6c19.456 0 31.744-12.288 31.744-25.6s-13.312-25.6-31.744-25.6zM311.296 333.824c-19.456 0-37.888 12.288-37.888 31.744 0 19.456 19.456 31.744 37.888 31.744 19.456 0 31.744-12.288 31.744-31.744 0-19.456-12.288-31.744-31.744-31.744zM489.472 397.312c19.456 0 31.744-12.288 31.744-31.744 0-19.456-12.288-31.744-31.744-31.744-19.456 0-37.888 12.288-37.888 31.744-1.024 18.432 18.432 31.744 37.888 31.744zM498.688 72.704c-245.76 0-445.44 199.68-445.44 445.44S252.928 962.56 498.688 962.56s445.44-199.68 445.44-445.44S744.448 72.704 498.688 72.704zM394.24 657.408c-31.744 0-57.344-6.144-89.088-12.288l-89.088 44.032 25.6-76.8c-63.488-44.032-101.376-101.376-101.376-171.008C139.264 320.512 253.952 225.28 394.24 225.28c124.928 0 234.496 75.776 256 178.176-8.192-1.024-16.384-1.024-24.576-1.024-120.832 0-216.064 90.112-216.064 200.704 0 18.432 3.072 35.84 8.192 53.248-8.192 1.024-16.384 1.024-23.552 1.024zM768 746.496l19.456 63.488-69.632-37.888c-25.6 6.144-51.2 12.288-75.776 12.288-120.832 0-216.064-82.944-216.064-184.32s95.232-184.32 216.064-184.32c113.664 0 216.064 82.944 216.064 184.32-1.024 57.344-38.912 108.544-90.112 146.432z" p-id="508"></path></svg>