<svg class="icon" style="width: 1em; height: 1em;vertical-align: middle;fill: currentColor;overflow: hidden;" viewBox="0 0 1024 1024" version="1.1" xmlns="http://www.w3.org/2000/svg" p-id="904"><path d="M860.489143 269.714286v641.718857c0 31.634286-22.052571 56.283429-50.395429 56.283428H140.434286c-28.306286 0-50.358857-24.649143-50.358857-56.32V127.634286c0-31.670857 22.052571-56.32 50.395428-56.32h549.888c15.725714 0 25.234286-14.043429 25.234286-28.16 0-14.043429-12.617143-28.123429-25.234286-28.123429H140.507429C83.821714 14.994286 36.571429 67.766857 36.571429 127.634286v783.835428C36.571429 974.738286 83.821714 1024 140.507429 1024H810.057143c56.685714 0 103.899429-49.261714 103.899428-112.566857V269.714286c-3.145143-17.590857-12.580571-28.16-28.342857-28.16-15.725714 0-25.161143 14.08-25.161143 28.16zM501.467429 379.794286H227.474286a24.868571 24.868571 0 0 0-25.234286 25.234285c0 12.580571 12.617143 25.161143 25.234286 25.161143h273.993143a24.868571 24.868571 0 0 0 25.161142-25.197714 24.868571 24.868571 0 0 0-25.161142-25.197714zM202.24 581.376c0 12.580571 12.617143 25.197714 25.234286 25.197714h453.485714a24.868571 24.868571 0 0 0 25.197714-25.234285c0-12.580571-12.617143-25.161143-25.197714-25.161143H227.474286c-12.617143 0-25.234286 12.580571-25.234286 25.197714zM980.114286 7.497143c-9.398857-9.472-25.161143-9.472-37.778286 0l-321.206857 318.061714a24.722286 24.722286 0 0 0 0 34.633143c9.435429 9.472 25.197714 9.472 37.778286 0l321.243428-318.061714a24.722286 24.722286 0 0 0 0-34.633143z" p-id="905"></path></svg>