<svg class="icon" preserveAspectRatio="meet" style="width: 1em; height: 1em;vertical-align: middle;fill: currentColor;overflow: hidden;" viewBox="0 0 700 700" version="1.1" xmlns="http://www.w3.org/2000/svg" p-id="3535"><path d="M341.333333 320m-256 0a256 256 0 1 0 512 0 256 256 0 1 0-512 0Z" fill="#fff" p-id="3542"></path><path d="M341.333333 320m-192 0a192 192 0 1 0 384 0 192 192 0 1 0-384 0Z" fill="#999" p-id="3543"></path><path d="M320 170.666667h42.666667v149.333333h-42.666667z" fill="#fff" p-id="3544"></path><path d="M437.717333 386.133333l-28.650666 28.672-81.450667-81.450666 28.672-28.650667z" fill="#fff"></path><path d="M341.333333 320m-32 0a32 32 0 1 0 64 0 32 32 0 1 0-64 0Z" fill="#fff" p-id="3546"></path></svg>