<svg class="icon" style="width: 1em; height: 1em;vertical-align: middle;fill: currentColor;overflow: hidden;" viewBox="0 0 1024 1024" version="1.1" xmlns="http://www.w3.org/2000/svg" p-id="517"><path d="M430.08 464.896c-115.712 5.12-209.92 67.584-209.92 145.408 0 76.8 94.208 135.168 209.92 130.048 116.736-5.12 210.944-77.824 209.92-155.648 0-76.8-93.184-124.928-209.92-119.808z m79.872 194.56c-34.816 46.08-105.472 68.608-174.08 31.744-32.768-17.408-31.744-52.224-31.744-52.224s-13.312-109.568 103.424-122.88c116.736-13.312 137.216 98.304 102.4 143.36zM431.104 586.752c-7.168 6.144-9.216 16.384-5.12 22.528 4.096 7.168 13.312 7.168 20.48 2.048 7.168-6.144 10.24-16.384 6.144-22.528-4.096-6.144-13.312-8.192-21.504-2.048zM376.832 601.088c-22.528 3.072-37.888 21.504-37.888 39.936 0 18.432 17.408 30.72 38.912 28.672 21.504-2.048 38.912-19.456 39.936-37.888 0-18.432-16.384-32.768-40.96-30.72zM512 54.272C258.048 54.272 52.224 260.096 52.224 514.048 52.224 766.976 258.048 972.8 512 972.8s459.776-205.824 459.776-458.752C971.776 260.096 765.952 54.272 512 54.272z m232.448 581.632c-47.104 102.4-205.824 151.552-322.56 142.336-111.616-8.192-254.976-45.056-269.312-180.224 0 0-8.192-61.44 51.2-140.288 0 0 84.992-118.784 184.32-152.576 99.328-33.792 110.592 23.552 110.592 57.344-5.12 28.672-14.336 45.056 22.528 33.792 0 0 97.28-45.056 137.216-5.12 31.744 32.768 5.12 76.8 5.12 76.8s-13.312 15.36 14.336 20.48c27.648 6.144 114.688 46.08 66.56 147.456z m-96.256-280.576c-11.264 0-19.456-9.216-19.456-19.456 0-11.264 9.216-19.456 19.456-19.456 0 0 119.808-21.504 105.472 106.496v2.048c-1.024 9.216-9.216 16.384-18.432 16.384-11.264 0-19.456-8.192-20.48-19.456 0 0 19.456-84.992-66.56-66.56z m175.104 121.856c-15.36 0-27.648-6.144-27.648-21.504 0-13.312 5.12-26.624 5.12-26.624 2.048-5.12 15.36-39.936-8.192-92.16-43.008-71.68-128-72.704-138.24-68.608-10.24 4.096-25.6 6.144-25.6 6.144-15.36 0-27.648-12.288-27.648-27.648 0-13.312 9.216-24.576 20.48-27.648l1.024-1.024c1.024 0 2.048-2.048 3.072-2.048 11.264-3.072 54.272-12.288 95.232-3.072C794.624 230.4 896 286.72 849.92 450.56c-3.072 20.48-13.312 26.624-26.624 26.624z" p-id="518"></path></svg>